<svg xmlns="http://www.w3.org/2000/svg" width="772" height="772"><g fill="none"><path fill="#6180E9" d="M.268 386c0 137.809 73.52 265.15 192.866 334.054 119.346 68.904 266.386 68.904 385.732 0S771.732 523.809 771.732 386C771.732 172.966 599.034.268 386 .268 172.966.268.268 172.966.268 386z"/><path fill="#353535" d="M515.229 178.82H262.47L136.101 397.7l126.37 218.88h252.75L641.59 397.7 515.228 178.82zm-12.177 416.699h-228.42l-114.21-197.82 114.21-197.82H503.06L617.27 397.7 503.052 595.52z"/><path fill="#353535" d="M273.002 289.88l-38.69 67.021 38.69 67.013h77.388l38.69-67.013-38.69-67.02h-77.388zm77.388 134.034l-38.698 67.02 38.698 67.021h77.39l38.69-67.02-38.69-67.021h-77.39zM505.16 289.88h-77.38l-38.7 67.02 38.7 67.013h77.38l38.698-67.013-38.699-67.02z"/><path fill="#FFF" d="M515.229 171.702H262.47l-126.37 218.88 126.37 218.88h252.75l126.37-218.88-126.362-218.88zm-12.177 416.7h-228.42l-114.21-197.82 114.21-197.82H503.06l114.21 197.82-114.218 197.82z"/><path fill="#FFF" d="M273.002 282.764l-38.69 67.02 38.69 67.013h77.388l38.69-67.012-38.69-67.021h-77.388zm77.388 134.033l-38.698 67.02 38.698 67.021h77.39l38.69-67.02-38.69-67.021h-77.39zm154.77-134.033h-77.38l-38.7 67.02 38.7 67.013h77.38l38.698-67.012-38.699-67.021z"/></g></svg>